HIERARCHY
ROOT hip
{
  OFFSET 0 0 0
  CHANNELS 6 Xposition Yposition Zposition Zrotation Yrotation Xrotation
  JOINT abdomen
  {
    OFFSET 0 20.6881 -0.73152
    CHANNELS 3 Zrotation Xrotation Yrotation
    JOINT chest
    {
      OFFSET 0 11.7043 -0.48768
      CHANNELS 3 Zrotation Xrotation Yrotation
      JOINT neck
      {
        OFFSET 0 22.1894 -2.19456
        CHANNELS 3 Zrotation Xrotation Yrotation
        JOINT head
        {
          OFFSET -0.24384 7.07133 1.2192
          CHANNELS 3 Zrotation Xrotation Yrotation
          JOINT leftEye
          {
            OFFSET 4.14528 8.04674 8.04672
            CHANNELS 3 Zrotation Xrotation Yrotation
            End Site
            {
              OFFSET 1 0 0
            }
          }
          JOINT rightEye
          {
            OFFSET -3.6576 8.04674 8.04672
            CHANNELS 3 Zrotation Xrotation Yrotation
            End Site
            {
              OFFSET 1 0 0
            }
          }
        }
      }
      JOINT rCollar
      {
        OFFSET -2.68224 19.2634 -4.8768
        CHANNELS 3 Zrotation Xrotation Yrotation
        JOINT rShldr
        {
          OFFSET -8.77824 -1.95073 1.46304
          CHANNELS 3 Zrotation Xrotation Yrotation
          JOINT rForeArm
          {
            OFFSET -28.1742 -1.7115 0.48768
            CHANNELS 3 Zrotation Xrotation Yrotation
            JOINT rHand
            {
              OFFSET -22.5879 0.773209 7.07136
              CHANNELS 3 Zrotation Xrotation Yrotation
              JOINT rThumb1
              {
                OFFSET -1.2192 -0.487915 3.41376
                CHANNELS 3 Zrotation Xrotation Yrotation
                JOINT rThumb2
                {
                  OFFSET -3.37035 -0.52449 3.41376
                  CHANNELS 3 Zrotation Xrotation Yrotation
                  End Site
                  {
                    OFFSET -1.78271 -1.18214 1.43049
                  }
                }
              }
              JOINT rIndex1
              {
                OFFSET -7.75947 0.938293 5.60832
                CHANNELS 3 Zrotation Xrotation Yrotation
                JOINT rIndex2
                {
                  OFFSET -2.54057 -0.884171 1.56538
                  CHANNELS 3 Zrotation Xrotation Yrotation
                  End Site
                  {
                    OFFSET -1.62519 -0.234802 1.16502
                  }
                }
              }
              JOINT rMid1
              {
                OFFSET -8.24714 1.18213 3.41376
                CHANNELS 3 Zrotation Xrotation Yrotation
                JOINT rMid2
                {
                  OFFSET -3.10165 -0.590103 1.0647
                  CHANNELS 3 Zrotation Xrotation Yrotation
                  End Site
                  {
                    OFFSET -2.48547 -0.328903 0.83742
                  }
                }
              }
              JOINT rRing1
              {
                OFFSET -8.82822 0.546677 1.51678
                CHANNELS 3 Zrotation Xrotation Yrotation
                JOINT rRing2
                {
                  OFFSET -2.60934 -0.819778 -0.0198488
                  CHANNELS 3 Zrotation Xrotation Yrotation
                  End Site
                  {
                    OFFSET -2.33842 -0.294052 0.168128
                  }
                }
              }
              JOINT rPinky1
              {
                OFFSET -8.27202 -0.0477905 -0.4584
                CHANNELS 3 Zrotation Xrotation Yrotation
                JOINT rPinky2
                {
                  OFFSET -1.82734 -0.647385 -0.700984
                  CHANNELS 3 Zrotation Xrotation Yrotation
                  End Site
                  {
                    OFFSET -1.69225 -0.51767 -0.607171
                  }
                }
              }
            }
          }
        }
      }
      JOINT lCollar
      {
        OFFSET 2.68224 19.2634 -4.8768
        CHANNELS 3 Zrotation Xrotation Yrotation
        JOINT lShldr
        {
          OFFSET 8.77824 -1.95073 1.46304
          CHANNELS 3 Zrotation Xrotation Yrotation
          JOINT lForeArm
          {
            OFFSET 28.1742 -1.7115 0.48768
            CHANNELS 3 Zrotation Xrotation Yrotation
            JOINT lHand
            {
              OFFSET 22.5879 0.773209 7.07136
              CHANNELS 3 Zrotation Xrotation Yrotation
              JOINT lThumb1
              {
                OFFSET 1.2192 -0.487915 3.41376
                CHANNELS 3 Zrotation Xrotation Yrotation
                JOINT lThumb2
                {
                  OFFSET 3.37035 -0.52449 3.41376
                  CHANNELS 3 Zrotation Xrotation Yrotation
                  End Site
                  {
                    OFFSET 1.78271 -1.18214 1.43049
                  }
                }
              }
              JOINT lIndex1
              {
                OFFSET 7.75947 0.938293 5.60832
                CHANNELS 3 Zrotation Xrotation Yrotation
                JOINT lIndex2
                {
                  OFFSET 2.54057 -0.884171 1.56538
                  CHANNELS 3 Zrotation Xrotation Yrotation
                  End Site
                  {
                    OFFSET 1.62519 -0.234802 1.16502
                  }
                }
              }
              JOINT lMid1
              {
                OFFSET 8.24714 1.18213 3.41376
                CHANNELS 3 Zrotation Xrotation Yrotation
                JOINT lMid2
                {
                  OFFSET 3.10165 -0.590103 1.0647
                  CHANNELS 3 Zrotation Xrotation Yrotation
                  End Site
                  {
                    OFFSET 2.48547 -0.328903 0.83742
                  }
                }
              }
              JOINT lRing1
              {
                OFFSET 8.82822 0.546677 1.51678
                CHANNELS 3 Zrotation Xrotation Yrotation
                JOINT lRing2
                {
                  OFFSET 2.60934 -0.819778 -0.0198488
                  CHANNELS 3 Zrotation Xrotation Yrotation
                  End Site
                  {
                    OFFSET 2.33842 -0.294052 0.168128
                  }
                }
              }
              JOINT lPinky1
              {
                OFFSET 8.27202 -0.0477905 -0.4584
                CHANNELS 3 Zrotation Xrotation Yrotation
                JOINT lPinky2
                {
                  OFFSET 1.82734 -0.647385 -0.700984
                  CHANNELS 3 Zrotation Xrotation Yrotation
                  End Site
                  {
                    OFFSET 1.69225 -0.51767 -0.607171
                  }
                }
              }
            }
          }
        }
      }
    }
  }
  JOINT rButtock
  {
    OFFSET -8.77824 4.35084 1.2192
    CHANNELS 3 Zrotation Xrotation Yrotation
    JOINT rThigh
    {
      OFFSET 0 -1.70687 -2.19456
      CHANNELS 3 Zrotation Xrotation Yrotation
      JOINT rShin
      {
        OFFSET 0 -36.8199 0.73152
        CHANNELS 3 Zrotation Xrotation Yrotation
        JOINT rFoot
        {
          OFFSET 0.73152 -45.1104 -5.12064
          CHANNELS 3 Zrotation Xrotation Yrotation
          End Site
          {
            OFFSET -1.1221 -3.69964 12.103
          }
        }
      }
    }
  }
  JOINT lButtock
  {
    OFFSET 8.77824 4.35084 1.2192
    CHANNELS 3 Zrotation Xrotation Yrotation
    JOINT lThigh
    {
      OFFSET 0 -1.70687 -2.19456
      CHANNELS 3 Zrotation Xrotation Yrotation
      JOINT lShin
      {
        OFFSET 0 -36.8199 0.73152
        CHANNELS 3 Zrotation Xrotation Yrotation
        JOINT lFoot
        {
          OFFSET -0.73152 -45.1104 -5.12064
          CHANNELS 3 Zrotation Xrotation Yrotation
          End Site
          {
            OFFSET 1.1221 -3.69964 12.103
          }
        }
      }
    }
  }
}
MOTION
Frames:	8
Frame Time:	0.00833333
63.2363 82.2556 213.148 0.0 0.0 0.0 -4.77303 0.00925687 -0.128166 -1.31326 0.0404284 -0.226878 -1.11917e-13 1.59028e-15 -9.93917e-17 -3.37319e-13 3.18055e-15 -3.97569e-16 -0.0 0.0 0.0 -0.0 0.0 0.0 -5.5417e-14 -4.62407e-16 -4.96962e-17 -1.18418e-12 -9.27455e-15 -5.1684e-15 -2.03672e-11 5.81684e-12 1.20861e-13 -2.33587e-10 -7.75074e-12 -8.36486e-13 -5.50876e-10 -4.19291e-12 -1.48214e-12 -9.51335e-10 -7.24212e-12 -2.5524e-12 -5.5087e-10 -4.19396e-12 -1.49168e-12 7.73091 5.47488 0.417314 -5.50877e-10 -4.19306e-12 -1.4885e-12 2.90554 0.965183 0.102902 -5.50869e-10 -4.19277e-12 -1.49168e-12 10.2786 0.731801 0.0259123 -5.5088e-10 -4.19038e-12 -1.48532e-12 2.22167 -0.733487 -0.20892 -5.55085e-14 -4.57748e-16 -1.49089e-16 -1.18841e-12 -8.69683e-15 -7.55382e-15 -2.04587e-11 -6.39729e-12 1.36764e-13 -2.33549e-10 4.48153e-12 -8.52389e-13 -5.50972e-10 -4.16103e-12 -1.5044e-12 -9.51477e-10 -7.19123e-12 -2.57148e-12 -5.50978e-10 -4.15818e-12 -1.49168e-12 -7.73091 5.47488 -0.417314 -5.50973e-10 -4.16056e-12 -1.50122e-12 -2.90554 0.965183 -0.102902 -5.50982e-10 -4.16086e-12 -1.49566e-12 -10.2786 0.731801 -0.0259123 -5.50974e-10 -4.16215e-12 -1.49804e-12 -2.22167 -0.733487 0.20892 -2.03217e-16 0.0 -3.88251e-19 -3.15645 -1.94856 0.0347002 -0.00821041 -2.07871 -0.0671952 -0.470813 4.00263 0.134306 2.03217e-16 0.0 3.88251e-19 -4.06329 -11.8418 0.547643 -0.0161019 15.8338 -0.442592 0.592861 -4.01612 0.0187174
63.0144 81.0548 203.039 -178.94 -9.246 -172.21 -5.32136 -2.03822 -1.18578 -0.10199 2.2136 -0.530135 -1.38601 4.52878 -0.647275 4.1025 -10.7521 -0.0761372 -0.0 0.0 0.0 -0.0 0.0 0.0 -1.73922e-14 1.01529e-13 1.2441e-13 22.5983 -0.637122 -0.684615 -3.54512 -1.49657 5.65493 0.18387 9.53672 1.27423 -5.88719e-10 4.02931e-10 -7.74031e-10 -1.03591e-09 7.00336e-10 -1.32875e-09 -5.88715e-10 4.0293e-10 -7.7404e-10 7.73091 5.47488 0.417314 -5.88721e-10 4.02932e-10 -7.74035e-10 2.90554 0.965183 0.102902 -5.88711e-10 4.02933e-10 -7.74038e-10 10.2786 0.731801 0.0259123 -5.8872e-10 4.02935e-10 -7.74031e-10 2.22167 -0.733487 -0.20892 -1.74961e-14 1.01531e-13 1.24286e-13 -22.9323 3.02636 -1.36327 2.27659 -0.818141 -3.75611 -0.197378 9.885 -1.31581 -1.39488e-09 -6.01838e-10 -4.87149e-10 -2.41926e-09 -1.03266e-09 -8.13463e-10 -1.39489e-09 -6.01836e-10 -4.87138e-10 -7.73091 5.47488 -0.417314 -1.39488e-09 -6.01839e-10 -4.87149e-10 -2.90554 0.965183 -0.102902 -1.39489e-09 -6.01839e-10 -4.87144e-10 -10.2786 0.731801 -0.0259123 -1.39489e-09 -6.01839e-10 -4.87148e-10 -2.22167 -0.733487 0.20892 -2.03217e-16 0.0 -3.88251e-19 -4.0196 -9.81648 -1.13076 0.0248688 4.52721 0.148507 -0.427107 0.883587 0.644583 2.03217e-16 0.0 3.88251e-19 -4.08966 -12.5669 0.479924 -0.0849333 18.6951 -0.604956 0.393328 -6.38681 -2.53173
62.9884 81.0501 203.058 -179.045 -9.3509 -172.129 -5.98589 -4.20066 -2.30637 1.20212 4.51085 -0.85177 -2.73357 9.31653 -1.34671 8.39932 -22.1234 -0.171107 -0.0 0.0 0.0 -0.0 0.0 0.0 2.6046e-14 2.18164e-13 2.56414e-13 46.4757 -1.31181 -1.41277 -6.97284 -3.02978 11.6446 -0.108724 19.6071 2.74484 -5.9948e-10 8.47388e-10 -1.66578e-09 -1.07689e-09 1.47391e-09 -2.86093e-09 -5.99478e-10 8.47388e-10 -1.66579e-09 7.73091 5.47488 0.417314 -5.99483e-10 8.47391e-10 -1.66578e-09 2.90554 0.965183 0.102902 -5.99473e-10 8.47392e-10 -1.66578e-09 10.2786 0.731801 0.0259123 -5.9948e-10 8.47394e-10 -1.66578e-09 2.22167 -0.733487 -0.20892 2.59286e-14 2.18163e-13 2.56264e-13 -47.0145 6.19733 -2.8147 4.56256 -1.66915 -7.72215 0.117665 20.3428 -2.84728 -2.3603e-09 -1.2686e-09 -1.01594e-09 -4.09782e-09 -2.17648e-09 -1.69528e-09 -2.3603e-09 -1.2686e-09 -1.01593e-09 -7.73091 5.47488 -0.417314 -2.3603e-09 -1.2686e-09 -1.01595e-09 -2.90554 0.965183 -0.102902 -2.3603e-09 -1.2686e-09 -1.01594e-09 -10.2786 0.731801 -0.0259123 -2.3603e-09 -1.2686e-09 -1.01595e-09 -2.22167 -0.733487 0.20892 -2.03217e-16 0.0 -3.88251e-19 -5.29681 -18.1232 -2.44799 0.00490814 11.5112 0.383257 -0.32017 -2.41125 1.1874 2.03217e-16 0.0 3.88251e-19 -4.1204 -13.3322 0.409229 -0.13866 21.7192 -0.78442 -0.0490078 -8.87014 -5.25461
62.9718 81.0484 203.064 -179.068 -9.3793 -172.096 -6.64577 -6.12429 -3.31772 2.39 6.55894 -1.14295 -3.8436 13.5793 -1.99145 12.2085 -32.2561 -0.265354 -0.0 0.0 0.0 -0.0 0.0 0.0 5.86576e-14 3.05513e-13 3.73331e-13 67.7491 -1.91027 -2.05486 -9.76138 -4.31509 17.0087 -0.869427 28.5495 4.29261 -6.64404e-10 1.21718e-09 -2.31913e-09 -1.20505e-09 2.11549e-09 -3.98115e-09 -6.64404e-10 1.21718e-09 -2.31914e-09 7.73091 5.47488 0.417314 -6.64408e-10 1.21718e-09 -2.31913e-09 2.90554 0.965183 0.102902 -6.64397e-10 1.21718e-09 -2.31913e-09 10.2786 0.731801 0.0259123 -6.64402e-10 1.21719e-09 -2.31912e-09 2.22167 -0.733487 -0.20892 5.85287e-14 3.05509e-13 3.73157e-13 -68.3605 9.05838 -4.13579 6.51003 -2.41227 -11.2773 0.942077 29.5876 -4.47306 -3.08271e-09 -1.79719e-09 -1.45844e-09 -5.35482e-09 -3.08359e-09 -2.43525e-09 -3.08272e-09 -1.79719e-09 -1.45843e-09 -7.73091 5.47488 -0.417314 -3.08271e-09 -1.79719e-09 -1.45845e-09 -2.90554 0.965183 -0.102902 -3.08272e-09 -1.79719e-09 -1.45844e-09 -10.2786 0.731801 -0.0259123 -3.08271e-09 -1.79719e-09 -1.45845e-09 -2.22167 -0.733487 0.20892 -2.03217e-16 0.0 -3.88251e-19 -6.79536 -25.5094 -3.78103 -0.063714 17.7382 0.607306 -0.172542 -5.35209 1.67286 2.03217e-16 0.0 3.88251e-19 -4.14769 -14.017 0.343532 -0.168955 24.4167 -0.952726 -0.647605 -11.048 -7.72946
62.9501 81.0471 203.068 -179.079 -9.3852 -172.074 -7.13358 -7.45921 -4.04024 3.23841 7.98502 -1.35226 -4.58584 16.5365 -2.45187 14.8836 -39.2931 -0.317547 -0.0 0.0 0.0 -0.0 0.0 0.0 6.42027e-14 3.19647e-13 4.52533e-13 82.5452 -2.31926 -2.48082 -11.5629 -5.14681 20.767 -1.74949 34.7294 5.59072 -8.64734e-10 1.4003e-09 -2.37647e-09 -1.55113e-09 2.42712e-09 -4.07148e-09 -8.64735e-10 1.4003e-09 -2.37648e-09 7.73091 5.47488 0.417314 -8.64738e-10 1.4003e-09 -2.37647e-09 2.90554 0.965183 0.102902 -8.64726e-10 1.40031e-09 -2.37647e-09 10.2786 0.731801 0.0259123 -8.6473e-10 1.40031e-09 -2.37647e-09 2.22167 -0.733487 -0.20892 6.40674e-14 3.19643e-13 4.52335e-13 -83.1683 11.1638 -5.08909 7.83365 -2.92518 -13.7969 1.88856 35.8643 -5.83138 -3.19763e-09 -1.98035e-09 -1.68519e-09 -5.55792e-09 -3.39892e-09 -2.8206e-09 -3.19764e-09 -1.98035e-09 -1.68518e-09 -7.73091 5.47488 -0.417314 -3.19762e-09 -1.98035e-09 -1.6852e-09 -2.90554 0.965183 -0.102902 -3.19763e-09 -1.98035e-09 -1.68519e-09 -10.2786 0.731801 -0.0259123 -3.19763e-09 -1.98035e-09 -1.6852e-09 -2.22167 -0.733487 0.20892 -2.03217e-16 0.0 -3.88251e-19 -8.08133 -30.6339 -4.86015 -0.142838 22.0737 0.776705 -0.042228 -7.41045 2.00493 2.03217e-16 0.0 3.88251e-19 -4.16278 -14.5005 0.290996 -0.179582 26.2984 -1.07531 -1.18273 -12.5324 -9.50301
62.9185 81.0449 203.076 -179.123 -9.4019 -172.034 -7.308 -7.97401 -4.34488 3.60119 8.54727 -1.44362 -4.93375 17.6622 -2.6153 16.0415 -41.9912 -0.259971 -0.0 0.0 0.0 -0.0 0.0 0.0 2.14854e-14 2.01576e-13 4.92634e-13 88.275 -2.47143 -2.59515 -12.2407 -5.45728 22.2495 -2.18379 37.0916 6.15814 -1.44305e-09 1.31649e-09 -1.3389e-09 -2.52017e-09 2.26144e-09 -2.26556e-09 -1.44305e-09 1.31649e-09 -1.3389e-09 7.73091 5.47488 0.417314 -1.44306e-09 1.3165e-09 -1.3389e-09 2.90554 0.965183 0.102902 -1.44304e-09 1.3165e-09 -1.3389e-09 10.2786 0.731801 0.0259123 -1.44305e-09 1.3165e-09 -1.33889e-09 2.22167 -0.733487 -0.20892 2.13525e-14 2.01573e-13 4.92406e-13 -88.9701 12.2289 -5.49586 8.38224 -3.14397 -14.8637 2.31972 38.0251 -6.37299 -2.22772e-09 -1.60203e-09 -1.64515e-09 -3.88174e-09 -2.75381e-09 -2.77657e-09 -2.22773e-09 -1.60203e-09 -1.64514e-09 -7.73091 5.47488 -0.417314 -2.22772e-09 -1.60203e-09 -1.64516e-09 -2.90554 0.965183 -0.102902 -2.22773e-09 -1.60203e-09 -1.64515e-09 -10.2786 0.731801 -0.0259123 -2.22772e-09 -1.60202e-09 -1.64516e-09 -2.22167 -0.733487 0.20892 -2.03217e-16 0.0 -3.88251e-19 -8.64822 -32.6126 -5.35228 -0.181421 23.7554 0.846593 0.0109346 -8.2315 2.11637 2.03217e-16 0.0 3.88251e-19 -4.15521 -14.6955 0.256281 -0.181328 27.0407 -1.12411 -1.42569 -13.089 -10.2517
62.8857 81.0439 203.082 -179.166 -9.4496 -172.014 -7.24134 -7.90482 -4.34793 3.61119 8.49235 -1.44958 -5.02434 17.4815 -2.55675 16.1216 -41.5902 -0.118283 -0.0 0.0 0.0 -0.0 0.0 0.0 -5.52111e-14 -9.51302e-15 5.04152e-13 87.5325 -2.43996 -2.4871 -12.1738 -5.42849 22.0996 -2.12054 36.7429 6.0734 -2.28239e-09 1.04229e-09 4.68361e-10 -3.91905e-09 1.75555e-09 8.73198e-10 -2.28239e-09 1.04229e-09 4.68354e-10 7.73091 5.47488 0.417314 -2.2824e-09 1.04229e-09 4.68362e-10 2.90554 0.965183 0.102902 -2.28238e-09 1.04229e-09 4.68359e-10 10.2786 0.731801 0.0259123 -2.28239e-09 1.04229e-09 4.68365e-10 2.22167 -0.733487 -0.20892 -5.53354e-14 -9.51405e-15 5.03891e-13 -88.3749 12.555 -5.50239 8.40047 -3.16104 -14.8909 2.19321 37.2638 -6.19079 -4.94107e-10 -8.2635e-10 -1.41286e-09 -8.82449e-10 -1.42896e-09 -2.42264e-09 -4.94114e-10 -8.26349e-10 -1.41286e-09 -7.73091 5.47488 -0.417314 -4.94104e-10 -8.26349e-10 -1.41287e-09 -2.90554 0.965183 -0.102902 -4.9411e-10 -8.26348e-10 -1.41287e-09 -10.2786 0.731801 -0.0259123 -4.94106e-10 -8.26344e-10 -1.41287e-09 -2.22167 -0.733487 0.20892 -2.03217e-16 0.0 -3.88251e-19 -8.58462 -32.3551 -5.34843 -0.17683 23.5419 0.83811 -0.00318035 -8.16946 2.06732 2.03217e-16 0.0 3.88251e-19 -4.13117 -14.6849 0.234448 -0.181304 26.9691 -1.11762 -1.41153 -12.9963 -10.255
62.8696 81.0456 203.078 -179.126 -9.5414 -172.043 -7.07864 -7.60469 -4.23443 3.46119 8.18035 -1.42055 -4.98767 16.7917 -2.41689 15.7284 -39.9573 0.0244426 -0.0 0.0 0.0 -0.0 0.0 0.0 -1.28909e-13 -2.1028e-13 4.8232e-13 84.2204 -2.32266 -2.3035 -11.8108 -5.26522 21.3 -1.86122 35.306 5.72971 -2.92466e-09 7.00871e-10 2.16666e-09 -4.98128e-09 1.13816e-09 3.81802e-09 -2.92466e-09 7.00873e-10 2.16666e-09 7.73091 5.47488 0.417314 -2.92467e-09 7.00875e-10 2.16666e-09 2.90554 0.965183 0.102902 -2.92465e-09 7.00877e-10 2.16666e-09 10.2786 0.731801 0.0259123 -2.92466e-09 7.00879e-10 2.16666e-09 2.22167 -0.733487 -0.20892 -1.29025e-13 -2.10278e-13 4.82032e-13 -85.2105 12.5799 -5.35019 8.20577 -3.09687 -14.4981 1.8669 35.3561 -5.74008 1.17007e-09 -1.63431e-11 -1.04728e-09 1.99998e-09 -4.33044e-11 -1.83744e-09 1.17007e-09 -1.63399e-11 -1.04728e-09 -7.73091 5.47488 -0.417314 1.17008e-09 -1.63394e-11 -1.04728e-09 -2.90554 0.965183 -0.102902 1.17007e-09 -1.63381e-11 -1.04728e-09 -10.2786 0.731801 -0.0259123 1.17007e-09 -1.63346e-11 -1.04729e-09 -2.22167 -0.733487 0.20892 -2.03217e-16 0.0 -3.88251e-19 -8.27612 -31.221 -5.1444 -0.155111 22.581 0.798547 -0.0446142 -7.75996 1.94935 2.03217e-16 0.0 3.88251e-19 -4.10676 -14.6024 0.219295 -0.18049 26.5685 -1.08917 -1.29259 -12.6475 -9.95166
